<mxfile host="app.diagrams.net" modified="2020-05-13T10:32:29.895Z" agent="5.0 (Windows NT 6.1; WOW64) AppleWebKit/537.36 (KHTML, like Gecko) Chrome/69.0.3497.81 Safari/537.36 Maxthon/5.3.8.2000" etag="Ru6ZpVTzr7oJK-cFLG8w" version="13.1.1" type="github">
  <diagram name="Page-1" id="c9db0220-8083-56f3-ca83-edcdcd058819">
    <mxGraphModel dx="2370" dy="1282" grid="1" gridSize="10" guides="1" tooltips="1" connect="1" arrows="1" fold="1" page="1" pageScale="1.5" pageWidth="826" pageHeight="1169" background="#ffffff" math="0" shadow="0">
      <root>
        <mxCell id="0" style=";html=1;" />
        <mxCell id="1" style=";html=1;" parent="0" />
        <mxCell id="-u_xVx5pKLEJ8h2CzyQ2-18" value="" style="rounded=1;whiteSpace=wrap;html=1;strokeColor=#E0E0E0;fillColor=#ffffff;fontColor=#E0E0E0;" vertex="1" parent="1">
          <mxGeometry x="78.5" y="10" width="1150" height="20" as="geometry" />
        </mxCell>
        <mxCell id="-u_xVx5pKLEJ8h2CzyQ2-19" value="Some quick example text to build on the card title and make up the bulk of the card&#39;s content." style="html=1;shadow=0;dashed=0;shape=mxgraph.bootstrap.rrect;rSize=5;strokeColor=#DFDFDF;html=1;whiteSpace=wrap;fillColor=#ffffff;fontColor=#000000;verticalAlign=bottom;align=left;spacing=20;fontSize=14;" vertex="1" parent="1">
          <mxGeometry x="460" y="190" width="250" height="260" as="geometry" />
        </mxCell>
        <mxCell id="-u_xVx5pKLEJ8h2CzyQ2-20" value="Image cap" style="html=1;shadow=0;dashed=0;shape=mxgraph.bootstrap.topButton;rSize=5;perimeter=none;whiteSpace=wrap;fillColor=#868E96;strokeColor=#DFDFDF;fontColor=#DEE2E6;resizeWidth=1;fontSize=18;" vertex="1" parent="-u_xVx5pKLEJ8h2CzyQ2-19">
          <mxGeometry width="250" height="180" relative="1" as="geometry" />
        </mxCell>
        <mxCell id="-u_xVx5pKLEJ8h2CzyQ2-21" value="" style="rounded=0;whiteSpace=wrap;html=1;strokeColor=none;fillColor=#333333;fontColor=#333333;" vertex="1" parent="1">
          <mxGeometry width="40" height="820" as="geometry" />
        </mxCell>
        <mxCell id="-u_xVx5pKLEJ8h2CzyQ2-22" value="" style="rounded=0;whiteSpace=wrap;html=1;strokeColor=none;fillColor=#333333;fontColor=#333333;" vertex="1" parent="1">
          <mxGeometry x="1199" width="40" height="820" as="geometry" />
        </mxCell>
        <mxCell id="-u_xVx5pKLEJ8h2CzyQ2-23" value="Logo" style="text;html=1;align=center;verticalAlign=middle;whiteSpace=wrap;rounded=0;fontColor=#E0E0E0;" vertex="1" parent="1">
          <mxGeometry width="40" height="40" as="geometry" />
        </mxCell>
        <mxCell id="-u_xVx5pKLEJ8h2CzyQ2-24" value="" style="group" vertex="1" connectable="0" parent="1">
          <mxGeometry x="1209.5" y="10" width="19" height="20" as="geometry" />
        </mxCell>
        <mxCell id="-u_xVx5pKLEJ8h2CzyQ2-25" value="" style="ellipse;whiteSpace=wrap;html=1;strokeColor=#E0E0E0;fillColor=none;fontColor=#E0E0E0;" vertex="1" parent="-u_xVx5pKLEJ8h2CzyQ2-24">
          <mxGeometry width="11.399999999999999" height="12" as="geometry" />
        </mxCell>
        <mxCell id="-u_xVx5pKLEJ8h2CzyQ2-26" value="" style="endArrow=none;html=1;strokeColor=#E0E0E0;fontColor=#E0E0E0;entryX=1;entryY=1;entryDx=0;entryDy=0;" edge="1" parent="-u_xVx5pKLEJ8h2CzyQ2-24" target="-u_xVx5pKLEJ8h2CzyQ2-25">
          <mxGeometry width="50" height="50" relative="1" as="geometry">
            <mxPoint x="19" y="20" as="sourcePoint" />
            <mxPoint x="9.730508652763547" y="10.242640687119362" as="targetPoint" />
          </mxGeometry>
        </mxCell>
        <mxCell id="-u_xVx5pKLEJ8h2CzyQ2-27" value="" style="group" vertex="1" connectable="0" parent="1">
          <mxGeometry x="90" y="25" width="9" height="10" as="geometry" />
        </mxCell>
        <mxCell id="-u_xVx5pKLEJ8h2CzyQ2-28" value="" style="ellipse;whiteSpace=wrap;html=1;strokeColor=#E0E0E0;fillColor=none;fontColor=#E0E0E0;" vertex="1" parent="-u_xVx5pKLEJ8h2CzyQ2-27">
          <mxGeometry width="5.3999999999999995" height="6" as="geometry" />
        </mxCell>
        <mxCell id="-u_xVx5pKLEJ8h2CzyQ2-29" value="" style="endArrow=none;html=1;strokeColor=#E0E0E0;fontColor=#E0E0E0;entryX=1;entryY=1;entryDx=0;entryDy=0;" edge="1" parent="-u_xVx5pKLEJ8h2CzyQ2-27" target="-u_xVx5pKLEJ8h2CzyQ2-28">
          <mxGeometry width="50" height="50" relative="1" as="geometry">
            <mxPoint x="9" y="10" as="sourcePoint" />
            <mxPoint x="4.609188309203785" y="5.121320343559681" as="targetPoint" />
          </mxGeometry>
        </mxCell>
        <mxCell id="-u_xVx5pKLEJ8h2CzyQ2-30" value="" style="dashed=0;aspect=fixed;verticalLabelPosition=bottom;verticalAlign=top;align=center;shape=mxgraph.gmdl.star;strokeColor=none;fillColor=#E0E0E0;shadow=0;fontColor=#E0E0E0;" vertex="1" parent="1">
          <mxGeometry x="1208.5" y="50" width="20" height="20" as="geometry" />
        </mxCell>
        <mxCell id="-u_xVx5pKLEJ8h2CzyQ2-31" value="" style="pointerEvents=1;shadow=0;dashed=0;html=1;strokeColor=none;fillColor=#E0E0E0;labelPosition=center;verticalLabelPosition=bottom;verticalAlign=top;outlineConnect=0;align=center;shape=mxgraph.office.concepts.writing_pencil;fontColor=#E0E0E0;" vertex="1" parent="1">
          <mxGeometry x="1208.5" y="90" width="20" height="20" as="geometry" />
        </mxCell>
        <mxCell id="-u_xVx5pKLEJ8h2CzyQ2-32" value="" style="pointerEvents=1;shadow=0;dashed=0;html=1;strokeColor=none;fillColor=#E0E0E0;labelPosition=center;verticalLabelPosition=bottom;verticalAlign=top;outlineConnect=0;align=center;shape=mxgraph.office.concepts.home;fontColor=#E0E0E0;" vertex="1" parent="1">
          <mxGeometry x="4.5" y="45" width="31" height="30" as="geometry" />
        </mxCell>
        <mxCell id="-u_xVx5pKLEJ8h2CzyQ2-33" value="" style="html=1;dashed=0;whitespace=wrap;fillColor=#E0E0E0;strokeColor=none;shape=mxgraph.c4.person;align=center;points=[[0.5,0,0],[1,0.5,0],[1,0.75,0],[0.75,1,0],[0.5,1,0],[0.25,1,0],[0,0.75,0],[0,0.5,0]];fontColor=#E0E0E0;" vertex="1" parent="1">
          <mxGeometry x="10.5" y="85" width="19" height="30" as="geometry" />
        </mxCell>
        <mxCell id="-u_xVx5pKLEJ8h2CzyQ2-34" value="" style="html=1;verticalLabelPosition=bottom;align=center;labelBackgroundColor=#ffffff;verticalAlign=top;strokeWidth=2;strokeColor=none;shadow=0;dashed=0;shape=mxgraph.ios7.icons.back;fillColor=#E0E0E0;fontColor=#E0E0E0;" vertex="1" parent="1">
          <mxGeometry x="4.5" y="130" width="30" height="25.5" as="geometry" />
        </mxCell>
      </root>
    </mxGraphModel>
  </diagram>
</mxfile>
